<svg version="1.1" id="Layer_1" xmlns="http://www.w3.org/2000/svg" xmlns:xlink="http://www.w3.org/1999/xlink" x="0px" y="0px"
	 width="100%" viewBox="0 0 413 117" enable-background="new 0 0 413 117" xml:space="preserve">
<path fill="#FBFBFB" opacity="1.000000" stroke="none" 
	d="
M1.000001,52.000000 
	C1.000000,35.008011 1.000000,18.016024 0.999999,1.018027 
	C138.593765,1.012018 276.187531,1.012018 413.890656,1.012018 
	C413.890656,39.908455 413.890656,78.817314 413.890656,118.000000 
	C298.312592,118.000000 182.624954,118.000000 66.531479,117.627403 
	C67.164436,116.832687 68.170731,116.284401 69.246849,116.007042 
	C91.749336,110.207222 109.170204,88.927963 110.006760,66.176567 
	C111.056213,37.635132 91.453362,13.542815 62.598320,9.383031 
	C36.611557,5.636743 11.105073,21.432583 3.041233,48.630680 
	C2.680176,49.848473 1.694657,50.881119 1.000001,52.000000 
M297.575134,75.285873 
	C290.672577,69.852882 289.039490,60.948296 293.681702,54.056709 
	C298.698761,46.608734 307.694244,46.148903 318.730103,52.955738 
	C320.449554,51.122360 322.210266,49.244987 323.963043,47.376060 
	C311.251129,35.148544 290.655548,38.157799 284.020752,52.860718 
	C279.304291,63.312557 282.271667,74.741417 291.403351,81.294548 
	C299.919952,87.406281 315.411499,86.662361 322.588226,79.704910 
	C323.320190,78.995285 323.911530,77.770531 323.939453,76.767296 
	C324.076874,71.838074 324.001862,66.902924 324.001862,61.836716 
	C317.692078,61.836716 311.919250,61.836716 305.992249,61.836716 
	C305.992249,64.134483 305.992249,66.220520 305.992249,68.733177 
	C307.710052,68.733177 309.175446,68.700592 310.638641,68.742409 
	C312.078644,68.783562 313.516449,68.900154 314.903656,68.980652 
	C315.335938,75.373444 314.334595,76.922829 308.438934,77.170601 
	C305.061066,77.312546 301.632660,76.252090 297.575134,75.285873 
M384.743713,53.719254 
	C376.654572,53.044682 371.033600,55.913570 368.277344,62.123497 
	C365.456940,68.477997 367.023956,77.004364 371.850800,81.567001 
	C376.856445,86.298668 383.437836,86.579338 391.312225,82.553596 
	C393.314301,86.711937 396.838104,84.335701 399.908325,85.010925 
	C399.908325,70.051788 399.908325,55.517559 399.908325,40.851254 
	C397.224548,40.851254 394.786774,40.851254 391.810242,40.851254 
	C391.810242,46.217022 391.810242,51.387867 391.810242,56.658474 
	C389.380280,55.557838 387.451172,54.684067 384.743713,53.719254 
M227.377014,82.212029 
	C237.754608,88.455032 250.288818,85.259399 253.906494,75.448288 
	C256.751007,67.733948 253.876068,59.342602 247.093552,55.562717 
	C239.736130,51.462440 229.093964,53.383377 224.434891,59.652657 
	C219.446838,66.364655 220.373932,75.091484 227.377014,82.212029 
M169.041992,83.866791 
	C173.528351,83.879761 178.015076,83.925629 182.500671,83.872734 
	C183.232468,83.864105 184.043564,83.078781 184.673508,83.235046 
	C187.388962,83.908600 190.050583,84.799126 193.148026,85.736641 
	C193.148026,74.452293 193.148026,64.377823 193.148026,54.391212 
	C190.276489,54.391212 187.713547,54.391212 184.940643,54.391212 
	C184.940643,59.903419 185.014099,65.052254 184.920471,70.198044 
	C184.822052,75.606956 182.527512,78.170952 178.085800,78.102783 
	C173.753250,78.036285 171.914291,75.809822 171.856888,70.366798 
	C171.801132,65.080452 171.844772,59.793053 171.844772,54.402588 
	C168.668488,54.402588 165.980911,54.402588 163.063553,54.402588 
	C163.063553,60.752178 162.427643,66.823341 163.292480,72.672600 
	C163.846985,76.422951 166.614044,79.846169 169.041992,83.866791 
M155.516098,48.059872 
	C157.605850,48.059872 159.695618,48.059872 161.782562,48.059872 
	C161.782562,45.258163 161.782562,43.154652 161.782562,40.837536 
	C150.172806,40.837536 138.784393,40.837536 127.252151,40.837536 
	C127.252151,43.282715 127.252151,45.513393 127.252151,48.180496 
	C131.583969,48.180496 135.666718,48.180496 140.258881,48.180496 
	C140.258881,60.669567 140.258881,72.724953 140.258881,84.726273 
	C143.404297,84.726273 146.007324,84.726273 149.122177,84.726273 
	C149.122177,72.438301 149.122177,60.386147 149.122177,48.059673 
	C151.284943,48.059673 152.924881,48.059673 155.516098,48.059872 
M198.859818,54.037598 
	C198.059067,55.876949 197.258316,57.716305 196.309601,59.895512 
	C198.692215,60.502865 200.055695,60.850433 201.608398,61.246239 
	C201.608398,66.424850 201.497543,71.392212 201.638885,76.352394 
	C201.787018,81.550896 204.328918,84.491928 209.338547,85.096046 
	C212.069290,85.425346 214.872375,85.154831 217.811584,85.154831 
	C217.811584,82.521324 217.811584,80.401764 217.811584,78.295204 
	C209.686035,77.477654 208.127914,73.646927 210.633636,60.873569 
	C213.020554,60.714848 215.419891,60.555298 217.622864,60.408806 
	C217.622864,57.987301 217.622864,56.096798 217.622864,53.869820 
	C214.974899,53.869820 212.710205,53.869820 210.045364,53.869820 
	C210.045364,51.114376 210.045364,48.697884 210.045364,46.054585 
	C207.078110,46.054585 204.522476,46.054585 202.683594,46.054585 
	C201.600479,49.011051 200.684265,51.511929 198.859818,54.037598 
M259.022980,78.401733 
	C259.022980,80.504539 259.022980,82.607346 259.022980,84.726013 
	C262.191223,84.726013 264.769836,84.726013 267.817444,84.726013 
	C267.817444,79.203865 267.721191,73.925362 267.844574,68.651993 
	C267.967712,63.388275 269.934937,61.630341 275.276794,61.632771 
	C276.202698,61.633190 277.128571,61.632835 277.970154,61.632835 
	C277.970154,58.844368 277.970154,56.421825 277.970154,52.744175 
	C271.648956,56.327950 265.439484,53.347900 259.022980,54.198971 
	C259.022980,62.196205 259.022980,69.808952 259.022980,78.401733 
M337.678253,54.051773 
	C335.250305,54.051773 332.822327,54.051773 330.363953,54.051773 
	C330.363953,64.634628 330.363953,74.657921 330.363953,84.747299 
	C333.257080,84.747299 335.836243,84.747299 338.889130,84.747299 
	C338.889130,79.249985 338.787048,73.980423 338.918030,68.716667 
	C339.047119,63.528679 341.108215,61.687737 346.344482,61.656700 
	C347.245941,61.651356 348.146820,61.546124 348.856842,61.499569 
	C348.856842,58.730251 348.856842,56.330029 348.856842,52.809772 
	C345.227875,53.959324 342.234467,54.907551 339.139587,55.887917 
	C339.038605,55.642281 338.746216,54.930950 337.678253,54.051773 
M362.339752,58.592598 
	C362.236328,57.164642 362.132904,55.736691 362.034027,54.371906 
	C359.071411,54.371906 356.509094,54.371906 353.961304,54.371906 
	C353.961304,64.641327 353.961304,74.572609 353.961304,84.697586 
	C356.773132,84.697586 359.335541,84.697586 362.339264,84.697586 
	C362.339264,76.153412 362.339264,67.865852 362.339752,58.592598 
M352.371124,44.644024 
	C352.771759,45.866932 352.886932,47.901360 353.626282,48.161480 
	C355.896179,48.960037 358.685852,49.879612 360.718445,49.167652 
	C361.981171,48.725357 363.327637,44.885689 362.669159,43.518230 
	C361.851715,41.820667 359.034851,40.312309 357.018219,40.227451 
	C355.583191,40.167065 354.043579,42.593014 352.371124,44.644024 
z"/>
<path fill="#0661FF" opacity="1.000000" stroke="none" 
	d="
M1.000001,52.428463 
	C1.694657,50.881119 2.680176,49.848473 3.041233,48.630680 
	C11.105073,21.432583 36.611557,5.636743 62.598320,9.383031 
	C91.453362,13.542815 111.056213,37.635132 110.006760,66.176567 
	C109.170204,88.927963 91.749336,110.207222 69.246849,116.007042 
	C68.170731,116.284401 67.164436,116.832687 66.062820,117.627403 
	C63.958332,118.000000 61.916668,118.000000 59.218704,117.697365 
	C56.708271,117.596489 54.854134,117.798241 53.000000,118.000000 
	C50.629444,118.000000 48.258884,118.000000 45.465469,117.616486 
	C44.716408,116.897087 44.442989,116.353188 44.056450,116.255104 
	C22.439026,110.769608 8.687637,97.310333 2.804154,75.777397 
	C2.611743,75.073189 1.619435,74.587532 1.000000,74.000000 
	C1.000000,72.285645 1.000000,70.571281 1.342233,68.199448 
	C1.456311,64.361305 1.228155,61.180653 1.000000,58.000000 
	C1.000000,56.285641 1.000000,54.571285 1.000001,52.428463 
M59.896484,26.487688 
	C57.601334,26.371685 54.914524,25.417402 53.075096,26.276806 
	C41.803886,31.542856 30.809866,37.401272 19.548269,42.689152 
	C13.143354,45.696579 15.903245,51.210751 15.306802,55.771812 
	C14.833715,59.389534 17.569853,60.550602 20.429476,62.080006 
	C30.652102,67.547356 40.742691,73.287689 50.636307,79.329124 
	C53.848663,81.290710 56.089333,81.212189 59.198231,79.348930 
	C69.573952,73.130424 80.188049,67.309799 90.567329,61.097015 
	C92.401482,59.999138 94.867386,57.656925 94.753365,56.051884 
	C94.456718,51.876076 97.620010,46.728817 91.654228,43.663494 
	C81.176537,38.279884 70.894714,32.515079 59.896484,26.487688 
M54.924068,94.616104 
	C55.274189,89.935394 53.657654,85.847656 49.903458,83.267410 
	C41.456989,77.462189 32.984295,71.605621 24.034286,66.651550 
	C17.168896,62.851376 16.045229,63.983406 16.028790,71.942757 
	C16.025698,73.439453 16.182211,74.956749 15.990320,76.428726 
	C15.535957,79.914093 17.057245,81.825935 20.149534,83.412605 
	C30.046158,88.490631 39.780399,93.884743 49.590500,99.132202 
	C50.986900,99.879150 52.456223,100.489784 54.535545,101.465622 
	C54.696869,98.995094 54.811424,97.240837 54.924068,94.616104 
M64.443306,96.995888 
	C71.174858,93.423073 77.651604,89.195175 84.705627,86.451408 
	C92.646614,83.362633 96.000961,78.643410 95.067734,70.090927 
	C94.484619,64.747063 93.948936,63.453648 88.945145,65.754807 
	C81.457619,69.198196 74.269661,73.351028 67.171013,77.567017 
	C58.698223,82.599129 55.523293,90.202103 57.604290,100.471306 
	C59.745022,99.377205 61.753761,98.350563 64.443306,96.995888 
z"/>
<path fill="#F9FAFD" opacity="1.000000" stroke="none" 
	d="
M1.000000,74.468658 
	C1.619435,74.587532 2.611743,75.073189 2.804154,75.777397 
	C8.687637,97.310333 22.439026,110.769608 44.056450,116.255104 
	C44.442989,116.353188 44.716408,116.897087 45.021305,117.616486 
	C30.406635,118.000000 15.813272,118.000000 1.000000,118.000000 
	C1.000000,103.646523 1.000000,89.291916 1.000000,74.468658 
z"/>
<path fill="#3F80FE" opacity="1.000000" stroke="none" 
	d="
M1.000000,58.454109 
	C1.228155,61.180653 1.456311,64.361305 1.342233,67.770981 
	C1.000000,64.969406 1.000000,61.938816 1.000000,58.454109 
z"/>
<path fill="#5C9BFF" opacity="1.000000" stroke="none" 
	d="
M53.428463,118.000000 
	C54.854134,117.798241 56.708271,117.596489 58.781204,117.697365 
	C57.285641,118.000000 55.571285,118.000000 53.428463,118.000000 
z"/>
<path fill="#090909" opacity="1.000000" stroke="none" 
	d="
M297.901062,75.509422 
	C301.632660,76.252090 305.061066,77.312546 308.438934,77.170601 
	C314.334595,76.922829 315.335938,75.373444 314.903656,68.980652 
	C313.516449,68.900154 312.078644,68.783562 310.638641,68.742409 
	C309.175446,68.700592 307.710052,68.733177 305.992249,68.733177 
	C305.992249,66.220520 305.992249,64.134483 305.992249,61.836716 
	C311.919250,61.836716 317.692078,61.836716 324.001862,61.836716 
	C324.001862,66.902924 324.076874,71.838074 323.939453,76.767296 
	C323.911530,77.770531 323.320190,78.995285 322.588226,79.704910 
	C315.411499,86.662361 299.919952,87.406281 291.403351,81.294548 
	C282.271667,74.741417 279.304291,63.312557 284.020752,52.860718 
	C290.655548,38.157799 311.251129,35.148544 323.963043,47.376060 
	C322.210266,49.244987 320.449554,51.122360 318.730103,52.955738 
	C307.694244,46.148903 298.698761,46.608734 293.681702,54.056709 
	C289.039490,60.948296 290.672577,69.852882 297.901062,75.509422 
z"/>
<path fill="#080808" opacity="1.000000" stroke="none" 
	d="
M385.132904,53.764778 
	C387.451172,54.684067 389.380280,55.557838 391.810242,56.658474 
	C391.810242,51.387867 391.810242,46.217022 391.810242,40.851254 
	C394.786774,40.851254 397.224548,40.851254 399.908325,40.851254 
	C399.908325,55.517559 399.908325,70.051788 399.908325,85.010925 
	C396.838104,84.335701 393.314301,86.711937 391.312225,82.553596 
	C383.437836,86.579338 376.856445,86.298668 371.850800,81.567001 
	C367.023956,77.004364 365.456940,68.477997 368.277344,62.123497 
	C371.033600,55.913570 376.654572,53.044682 385.132904,53.764778 
M390.544830,64.120087 
	C387.508606,60.255035 383.713226,59.503426 379.521973,61.858116 
	C375.978729,63.848717 374.710358,69.249367 376.598755,73.441376 
	C378.346344,77.320900 381.535339,78.705772 385.591736,78.007919 
	C390.913483,77.092384 393.080536,71.630157 390.544830,64.120087 
z"/>
<path fill="#0A0A0A" opacity="1.000000" stroke="none" 
	d="
M227.080841,81.991623 
	C220.373932,75.091484 219.446838,66.364655 224.434891,59.652657 
	C229.093964,53.383377 239.736130,51.462440 247.093552,55.562717 
	C253.876068,59.342602 256.751007,67.733948 253.906494,75.448288 
	C250.288818,85.259399 237.754608,88.455032 227.080841,81.991623 
M244.165833,75.581696 
	C247.821991,68.541954 245.829758,61.745594 239.770432,60.789230 
	C236.170593,60.221062 233.091095,61.287327 231.406342,64.679596 
	C229.396942,68.725548 229.527603,72.921486 232.847656,76.126106 
	C236.147980,79.311676 240.022537,78.968506 244.165833,75.581696 
z"/>
<path fill="#090909" opacity="1.000000" stroke="none" 
	d="
M168.715637,83.641411 
	C166.614044,79.846169 163.846985,76.422951 163.292480,72.672600 
	C162.427643,66.823341 163.063553,60.752178 163.063553,54.402588 
	C165.980911,54.402588 168.668488,54.402588 171.844772,54.402588 
	C171.844772,59.793053 171.801132,65.080452 171.856888,70.366798 
	C171.914291,75.809822 173.753250,78.036285 178.085800,78.102783 
	C182.527512,78.170952 184.822052,75.606956 184.920471,70.198044 
	C185.014099,65.052254 184.940643,59.903419 184.940643,54.391212 
	C187.713547,54.391212 190.276489,54.391212 193.148026,54.391212 
	C193.148026,64.377823 193.148026,74.452293 193.148026,85.736641 
	C190.050583,84.799126 187.388962,83.908600 184.673508,83.235046 
	C184.043564,83.078781 183.232468,83.864105 182.500671,83.872734 
	C178.015076,83.925629 173.528351,83.879761 168.715637,83.641411 
z"/>
<path fill="#070707" opacity="1.000000" stroke="none" 
	d="
M155.040466,48.059772 
	C152.924881,48.059673 151.284943,48.059673 149.122177,48.059673 
	C149.122177,60.386147 149.122177,72.438301 149.122177,84.726273 
	C146.007324,84.726273 143.404297,84.726273 140.258881,84.726273 
	C140.258881,72.724953 140.258881,60.669567 140.258881,48.180496 
	C135.666718,48.180496 131.583969,48.180496 127.252151,48.180496 
	C127.252151,45.513393 127.252151,43.282715 127.252151,40.837536 
	C138.784393,40.837536 150.172806,40.837536 161.782562,40.837536 
	C161.782562,43.154652 161.782562,45.258163 161.782562,48.059872 
	C159.695618,48.059872 157.605850,48.059872 155.040466,48.059772 
z"/>
<path fill="#0A0A0A" opacity="1.000000" stroke="none" 
	d="
M199.313934,54.025204 
	C200.684265,51.511929 201.600479,49.011051 202.683594,46.054585 
	C204.522476,46.054585 207.078110,46.054585 210.045364,46.054585 
	C210.045364,48.697884 210.045364,51.114376 210.045364,53.869820 
	C212.710205,53.869820 214.974899,53.869820 217.622864,53.869820 
	C217.622864,56.096798 217.622864,57.987301 217.622864,60.408806 
	C215.419891,60.555298 213.020554,60.714848 210.633636,60.873569 
	C208.127914,73.646927 209.686035,77.477654 217.811584,78.295204 
	C217.811584,80.401764 217.811584,82.521324 217.811584,85.154831 
	C214.872375,85.154831 212.069290,85.425346 209.338547,85.096046 
	C204.328918,84.491928 201.787018,81.550896 201.638885,76.352394 
	C201.497543,71.392212 201.608398,66.424850 201.608398,61.246239 
	C200.055695,60.850433 198.692215,60.502865 196.309601,59.895512 
	C197.258316,57.716305 198.059067,55.876949 199.313934,54.025204 
z"/>
<path fill="#0B0B0B" opacity="1.000000" stroke="none" 
	d="
M259.022980,77.911720 
	C259.022980,69.808952 259.022980,62.196205 259.022980,54.198971 
	C265.439484,53.347900 271.648956,56.327950 277.970154,52.744175 
	C277.970154,56.421825 277.970154,58.844368 277.970154,61.632835 
	C277.128571,61.632835 276.202698,61.633190 275.276794,61.632771 
	C269.934937,61.630341 267.967712,63.388275 267.844574,68.651993 
	C267.721191,73.925362 267.817444,79.203865 267.817444,84.726013 
	C264.769836,84.726013 262.191223,84.726013 259.022980,84.726013 
	C259.022980,82.607346 259.022980,80.504539 259.022980,77.911720 
z"/>
<path fill="#0D0D0D" opacity="1.000000" stroke="none" 
	d="
M338.066040,54.135696 
	C338.746216,54.930950 339.038605,55.642281 339.139587,55.887917 
	C342.234467,54.907551 345.227875,53.959324 348.856842,52.809772 
	C348.856842,56.330029 348.856842,58.730251 348.856842,61.499569 
	C348.146820,61.546124 347.245941,61.651356 346.344482,61.656700 
	C341.108215,61.687737 339.047119,63.528679 338.918030,68.716667 
	C338.787048,73.980423 338.889130,79.249985 338.889130,84.747299 
	C335.836243,84.747299 333.257080,84.747299 330.363953,84.747299 
	C330.363953,74.657921 330.363953,64.634628 330.363953,54.051773 
	C332.822327,54.051773 335.250305,54.051773 338.066040,54.135696 
z"/>
<path fill="#040404" opacity="1.000000" stroke="none" 
	d="
M362.339508,59.085442 
	C362.339264,67.865852 362.339264,76.153412 362.339264,84.697586 
	C359.335541,84.697586 356.773132,84.697586 353.961304,84.697586 
	C353.961304,74.572609 353.961304,64.641327 353.961304,54.371906 
	C356.509094,54.371906 359.071411,54.371906 362.034027,54.371906 
	C362.132904,55.736691 362.236328,57.164642 362.339508,59.085442 
z"/>
<path fill="#0F0F0F" opacity="1.000000" stroke="none" 
	d="
M352.460876,44.276680 
	C354.043579,42.593014 355.583191,40.167065 357.018219,40.227451 
	C359.034851,40.312309 361.851715,41.820667 362.669159,43.518230 
	C363.327637,44.885689 361.981171,48.725357 360.718445,49.167652 
	C358.685852,49.879612 355.896179,48.960037 353.626282,48.161480 
	C352.886932,47.901360 352.771759,45.866932 352.460876,44.276680 
z"/>
<path fill="#F2F6FD" opacity="1.000000" stroke="none" 
	d="
M60.213669,26.698809 
	C70.894714,32.515079 81.176537,38.279884 91.654228,43.663494 
	C97.620010,46.728817 94.456718,51.876076 94.753365,56.051884 
	C94.867386,57.656925 92.401482,59.999138 90.567329,61.097015 
	C80.188049,67.309799 69.573952,73.130424 59.198231,79.348930 
	C56.089333,81.212189 53.848663,81.290710 50.636307,79.329124 
	C40.742691,73.287689 30.652102,67.547356 20.429476,62.080006 
	C17.569853,60.550602 14.833715,59.389534 15.306802,55.771812 
	C15.903245,51.210751 13.143354,45.696579 19.548269,42.689152 
	C30.809866,37.401272 41.803886,31.542856 53.075096,26.276806 
	C54.914524,25.417402 57.601334,26.371685 60.213669,26.698809 
M77.325974,48.562382 
	C78.121277,49.306068 78.916580,50.049759 79.579445,50.669601 
	C72.174980,55.556053 64.753090,60.454010 57.614506,65.165001 
	C52.428158,61.212784 47.202423,57.230556 41.695087,53.033733 
	C45.009216,51.004631 48.177414,49.064877 51.502983,47.028770 
	C47.277557,43.874603 40.588932,45.783829 35.029896,51.393654 
	C42.533878,58.146935 52.832577,62.126221 56.601486,73.276550 
	C65.141449,61.488873 77.981522,56.015396 90.192680,48.764240 
	C87.216461,48.037777 85.143280,47.531738 83.743233,46.937881 
	C84.078415,46.634506 84.748810,46.138988 84.700806,46.055248 
	C81.958557,41.271084 72.359512,39.534195 67.470650,43.439075 
	C70.797104,45.052246 73.863266,46.539185 77.325974,48.562382 
M41.348106,43.940380 
	C41.815037,43.369297 42.281963,42.798214 42.748890,42.227127 
	C40.840954,41.433559 38.601410,39.579788 37.089577,40.052647 
	C33.144390,41.286594 29.517849,43.539333 25.511076,45.510319 
	C28.576162,48.638054 31.199318,49.435814 34.446049,47.384888 
	C36.401539,46.149620 38.592323,45.286842 41.348106,43.940380 
M67.754898,51.976364 
	C69.873695,52.131489 71.992500,52.286613 74.111298,52.441738 
	C68.145897,45.340649 63.475464,43.991291 59.795322,47.368679 
	C62.294312,48.813911 64.690582,50.199738 67.754898,51.976364 
M60.526108,32.967987 
	C57.234104,30.120081 54.058594,29.482410 50.999317,33.370850 
	C56.070038,37.060596 56.170013,37.062237 60.526108,32.967987 
M66.537384,35.670696 
	C64.236137,36.136189 61.934883,36.601681 58.965538,37.202312 
	C63.360088,42.345692 66.411636,39.961517 69.837395,37.544159 
	C68.794098,36.901546 67.999603,36.412182 66.537384,35.670696 
M44.652485,39.863266 
	C46.905811,39.653332 49.159138,39.443401 52.523628,39.129948 
	C48.223598,34.877411 45.210903,34.195660 41.817345,38.022606 
	C42.706940,38.607224 43.369511,39.042645 44.652485,39.863266 
M59.276714,41.990967 
	C56.438789,39.802193 53.745125,39.387463 51.301910,42.662449 
	C54.163956,45.479500 56.952297,45.738934 59.276714,41.990967 
z"/>
<path fill="#F6F9FD" opacity="1.000000" stroke="none" 
	d="
M54.925026,95.051338 
	C54.811424,97.240837 54.696869,98.995094 54.535545,101.465622 
	C52.456223,100.489784 50.986900,99.879150 49.590500,99.132202 
	C39.780399,93.884743 30.046158,88.490631 20.149534,83.412605 
	C17.057245,81.825935 15.535957,79.914093 15.990320,76.428726 
	C16.182211,74.956749 16.025698,73.439453 16.028790,71.942757 
	C16.045229,63.983406 17.168896,62.851376 24.034286,66.651550 
	C32.984295,71.605621 41.456989,77.462189 49.903458,83.267410 
	C53.657654,85.847656 55.274189,89.935394 54.925026,95.051338 
z"/>
<path fill="#F6F8FD" opacity="1.000000" stroke="none" 
	d="
M64.102905,97.159912 
	C61.753761,98.350563 59.745022,99.377205 57.604290,100.471306 
	C55.523293,90.202103 58.698223,82.599129 67.171013,77.567017 
	C74.269661,73.351028 81.457619,69.198196 88.945145,65.754807 
	C93.948936,63.453648 94.484619,64.747063 95.067734,70.090927 
	C96.000961,78.643410 92.646614,83.362633 84.705627,86.451408 
	C77.651604,89.195175 71.174858,93.423073 64.102905,97.159912 
z"/>
<path fill="#F4F5F5" opacity="1.000000" stroke="none" 
	d="
M390.741699,64.467300 
	C393.080536,71.630157 390.913483,77.092384 385.591736,78.007919 
	C381.535339,78.705772 378.346344,77.320900 376.598755,73.441376 
	C374.710358,69.249367 375.978729,63.848717 379.521973,61.858116 
	C383.713226,59.503426 387.508606,60.255035 390.741699,64.467300 
z"/>
<path fill="#F5F5F5" opacity="1.000000" stroke="none" 
	d="
M243.905182,75.889465 
	C240.022537,78.968506 236.147980,79.311676 232.847656,76.126106 
	C229.527603,72.921486 229.396942,68.725548 231.406342,64.679596 
	C233.091095,61.287327 236.170593,60.221062 239.770432,60.789230 
	C245.829758,61.745594 247.821991,68.541954 243.905182,75.889465 
z"/>
<path fill="#1C67FE" opacity="1.000000" stroke="none" 
	d="
M83.070099,47.025696 
	C85.143280,47.531738 87.216461,48.037777 90.192680,48.764240 
	C77.981522,56.015396 65.141449,61.488873 56.601486,73.276550 
	C52.832577,62.126221 42.533878,58.146935 35.029896,51.393654 
	C40.588932,45.783829 47.277557,43.874603 51.502983,47.028770 
	C48.177414,49.064877 45.009216,51.004631 41.695087,53.033733 
	C47.202423,57.230556 52.428158,61.212784 57.614506,65.165001 
	C64.753090,60.454010 72.174980,55.556053 79.579445,50.669601 
	C78.916580,50.049759 78.121277,49.306068 77.523758,48.283306 
	C79.504387,47.678051 81.287247,47.351875 83.070099,47.025696 
z"/>
<path fill="#1465FF" opacity="1.000000" stroke="none" 
	d="
M83.406662,46.981789 
	C81.287247,47.351875 79.504387,47.678051 77.325485,48.015175 
	C73.863266,46.539185 70.797104,45.052246 67.470650,43.439075 
	C72.359512,39.534195 81.958557,41.271084 84.700806,46.055248 
	C84.748810,46.138988 84.078415,46.634506 83.406662,46.981789 
z"/>
<path fill="#0E60FF" opacity="1.000000" stroke="none" 
	d="
M41.012741,44.098526 
	C38.592323,45.286842 36.401539,46.149620 34.446049,47.384888 
	C31.199318,49.435814 28.576162,48.638054 25.511076,45.510319 
	C29.517849,43.539333 33.144390,41.286594 37.089577,40.052647 
	C38.601410,39.579788 40.840954,41.433559 42.748890,42.227127 
	C42.281963,42.798214 41.815037,43.369297 41.012741,44.098526 
z"/>
<path fill="#1966FF" opacity="1.000000" stroke="none" 
	d="
M67.420868,51.780960 
	C64.690582,50.199738 62.294312,48.813911 59.795322,47.368679 
	C63.475464,43.991291 68.145897,45.340649 74.111298,52.441738 
	C71.992500,52.286613 69.873695,52.131489 67.420868,51.780960 
z"/>
<path fill="#1663FF" opacity="1.000000" stroke="none" 
	d="
M60.692276,33.295593 
	C56.170013,37.062237 56.070038,37.060596 50.999317,33.370850 
	C54.058594,29.482410 57.234104,30.120081 60.692276,33.295593 
z"/>
<path fill="#226AFE" opacity="1.000000" stroke="none" 
	d="
M66.871246,35.796753 
	C67.999603,36.412182 68.794098,36.901546 69.837395,37.544159 
	C66.411636,39.961517 63.360088,42.345692 58.965538,37.202312 
	C61.934883,36.601681 64.236137,36.136189 66.871246,35.796753 
z"/>
<path fill="#236BFE" opacity="1.000000" stroke="none" 
	d="
M44.342281,39.670670 
	C43.369511,39.042645 42.706940,38.607224 41.817345,38.022606 
	C45.210903,34.195660 48.223598,34.877411 52.523628,39.129948 
	C49.159138,39.443401 46.905811,39.653332 44.342281,39.670670 
z"/>
<path fill="#256AFE" opacity="1.000000" stroke="none" 
	d="
M59.491142,42.270798 
	C56.952297,45.738934 54.163956,45.479500 51.301910,42.662449 
	C53.745125,39.387463 56.438789,39.802193 59.491142,42.270798 
z"/>
</svg>